# xmcd
#
# Track frame offsets:
# 150
# 22887
# 42893
# 69580
# 86855
# 107551
# 126454
# 146317
# 168602
# 188270
# 207974
# 226673
#
# Disc length: 3272 seconds
#
#
# Revision: 0
# Processed by: cddbd v1.5.2PL0 Copyright (c) Steve Scherf et al.
# Submitted via: FreeRIP 2.951 
#
DISCID=990cc60c
DTITLE=Susie Boehm - Elemental
DYEAR=1900
DGENRE=Country
TTITLE0=Change
TTITLE1=Truthful
TTITLE2=Want Me
TTITLE3=Can't help who you love
TTITLE4=Illusion
TTITLE5=Elemental
TTITLE6=Waking Up
TTITLE7=Restless
TTITLE8=House on fire
TTITLE9=Dissatisfied viewer
TTITLE10=In another life
TTITLE11=Abandoned
EXTD=
EXTT0=
EXTT1=
EXTT2=
EXTT3=
EXTT4=
EXTT5=
EXTT6=
EXTT7=
EXTT8=
EXTT9=
EXTT10=
EXTT11=
PLAYORDER=
